<svg xmlns="http://www.w3.org/2000/svg" width="32" height="32" viewBox="0 0 32 32">
    <g fill="none" fill-rule="evenodd" transform="translate(1 1)">
        <circle cx="15" cy="15" r="15" stroke="#FFF" stroke-width=".5"/>
        <g fill="#FFF">
            <path d="M9.26 20.398h2.702v-8.729H9.26zM10.598 10.526c.882 0 1.597-.722 1.597-1.611 0-.89-.715-1.61-1.597-1.61-.883 0-1.598.72-1.598 1.61 0 .889.715 1.61 1.598 1.61M16.28 15.816c0-1.228.565-1.959 1.647-1.959.993 0 1.471.702 1.471 1.959v4.582h2.69V14.87c0-2.338-1.326-3.469-3.177-3.469s-2.63 1.442-2.63 1.442V11.67h-2.592v8.729h2.592v-4.582z"/>
        </g>
    </g>
</svg>
