<?xml version="1.0" encoding="UTF-8"?>
<svg width="20px" height="20px" viewBox="0 0 20 20" version="1.1" xmlns="http://www.w3.org/2000/svg" xmlns:xlink="http://www.w3.org/1999/xlink">
    <!-- Generator: Sketch 52.4 (67378) - http://www.bohemiancoding.com/sketch -->
    <title>Group 6</title>
    <desc>Created with Sketch.</desc>
    <defs>
        <polygon id="path-1" points="0 0.0003125 20 0.0003125 20 20 0 20"></polygon>
    </defs>
    <g id="Symbols" stroke="none" stroke-width="1" fill="none" fill-rule="evenodd">
        <g id="Share" transform="translate(-21.000000, -110.000000)">
            <g id="Group">
                <g transform="translate(20.000000, 34.000000)">
                    <g id="Group-6" transform="translate(1.000000, 76.000000)">
                        <path d="M10.599375,9.265125 L10.599375,9.2445 C10.595625,9.252 10.59,9.258875 10.585625,9.265125 L10.599375,9.265125 Z" id="Fill-1" fill="#096B9A"></path>
                        <g id="Group-5">
                            <mask id="mask-2" fill="white">
                                <use xlink:href="#path-1"></use>
                            </mask>
                            <g id="Clip-4"></g>
                            <path d="M15,14.7790625 L12.85625,14.7790625 L12.85625,11.3290625 C12.85625,10.4628125 12.54625,9.8703125 11.77,9.8703125 C11.17875,9.8703125 10.825,10.2709375 10.67,10.6553125 C10.613125,10.7934375 10.599375,10.9853125 10.599375,11.1778125 L10.599375,14.7790625 L8.45625,14.7790625 C8.45625,14.7790625 8.48375,8.9353125 8.45625,8.3315625 L10.599375,8.3315625 L10.599375,9.2446875 C10.885,8.8046875 11.39375,8.1796875 12.531875,8.1796875 C13.941875,8.1796875 15,9.1015625 15,11.0828125 L15,14.7790625 Z M6.198125,7.4509375 L6.184375,7.4509375 C5.465,7.4509375 5,6.9540625 5,6.3365625 C5,5.7034375 5.48,5.2209375 6.211875,5.2209375 C6.945625,5.2209375 7.3975,5.7034375 7.410625,6.3365625 C7.410625,6.9540625 6.945625,7.4509375 6.198125,7.4509375 Z M5.12625,14.7790625 L7.270625,14.7790625 L7.270625,8.3315625 L5.12625,8.3315625 L5.12625,14.7790625 Z M0,20.0003125 L20,20.0003125 L20,0.0003125 L0,0.0003125 L0,20.0003125 Z" id="Fill-3" fill="#096B9A" mask="url(#mask-2)"></path>
                        </g>
                    </g>
                </g>
            </g>
        </g>
    </g>
</svg>