<svg xmlns="http://www.w3.org/2000/svg" xmlns:xlink="http://www.w3.org/1999/xlink" width="20" height="20" viewBox="0 0 20 20">
    <defs>
        <path id="a" d="M0 0h19.94v19.94H0z"/>
    </defs>
    <g fill="none" fill-rule="evenodd">
        <mask id="b" fill="#fff">
            <use xlink:href="#a"/>
        </mask>
        <path fill="#475993" d="M17.254 0H2.687A2.687 2.687 0 0 0 0 2.687v14.567a2.687 2.687 0 0 0 2.687 2.687H9.87l.013-7.126H8.032a.437.437 0 0 1-.437-.435l-.009-2.297a.437.437 0 0 1 .437-.439h1.848v-2.22c0-2.575 1.573-3.977 3.87-3.977h1.886c.241 0 .437.196.437.437V5.82a.437.437 0 0 1-.436.436l-1.158.001c-1.249 0-1.491.594-1.491 1.465v1.922h2.746c.261 0 .464.228.433.488l-.272 2.297a.437.437 0 0 1-.434.385h-2.46l-.013 7.126h4.275a2.687 2.687 0 0 0 2.687-2.687V2.687A2.687 2.687 0 0 0 17.254 0" mask="url(#b)"/>
    </g>
</svg>
