<svg xmlns="http://www.w3.org/2000/svg" xmlns:xlink="http://www.w3.org/1999/xlink" width="20" height="20" viewBox="0 0 20 20">
    <defs>
        <path id="a" d="M0 .004h19.947v16.588H0z"/>
    </defs>
    <g fill="none" fill-rule="evenodd" transform="translate(0 1)">
        <mask id="b" fill="#fff">
            <use xlink:href="#a"/>
        </mask>
        <path fill="#76A9EA" d="M19.63 1.93a7.885 7.885 0 0 1-1.376.464A4.286 4.286 0 0 0 19.386.59a.225.225 0 0 0-.329-.262 7.935 7.935 0 0 1-2.102.869.558.558 0 0 1-.5-.124A4.3 4.3 0 0 0 13.61 0c-.454 0-.913.07-1.363.21A4.167 4.167 0 0 0 9.44 3.212a4.59 4.59 0 0 0-.101 1.584.155.155 0 0 1-.04.12.16.16 0 0 1-.133.053A11.277 11.277 0 0 1 1.415.83a.225.225 0 0 0-.369.028A4.298 4.298 0 0 0 .464 3.02c0 1.165.468 2.264 1.282 3.065a3.851 3.851 0 0 1-.981-.38.225.225 0 0 0-.334.194 4.306 4.306 0 0 0 2.512 3.967 3.86 3.86 0 0 1-.817-.068.225.225 0 0 0-.256.29 4.31 4.31 0 0 0 3.404 2.93 7.936 7.936 0 0 1-4.444 1.35H.332a.33.33 0 0 0-.322.248.34.34 0 0 0 .164.377 11.802 11.802 0 0 0 5.93 1.599c1.823 0 3.529-.362 5.069-1.075a11.192 11.192 0 0 0 3.708-2.78 12.183 12.183 0 0 0 2.271-3.802c.505-1.349.772-2.789.772-4.163v-.065c0-.22.1-.428.274-.57a8.505 8.505 0 0 0 1.71-1.876c.125-.187-.073-.422-.278-.33" mask="url(#b)"/>
    </g>
</svg>
