<svg xmlns="http://www.w3.org/2000/svg" width="20" height="20" viewBox="0 0 20 20">
    <path fill="#555" fill-rule="evenodd" d="M11.002 13.042a3.401 3.401 0 0 1-2.422-1.005.49.49 0 0 1 .693-.692 2.427 2.427 0 0 0 1.728.718h.001c.653 0 1.268-.255 1.73-.718l4.5-4.5a2.429 2.429 0 0 0 .717-1.73c0-.653-.254-1.267-.717-1.73l-.692-.691a2.45 2.45 0 0 0-3.46 0L9.963 5.807a.49.49 0 0 1-.692-.692l3.115-3.113a3.43 3.43 0 0 1 4.845 0l.692.692a3.402 3.402 0 0 1 1.004 2.422c0 .915-.357 1.775-1.004 2.422l-4.5 4.5a3.4 3.4 0 0 1-2.422 1.004m-5.884 5.883a3.404 3.404 0 0 1-2.423-1.004l-.692-.69A3.4 3.4 0 0 1 1 14.807a3.4 3.4 0 0 1 1.003-2.423l4.5-4.5c1.295-1.294 3.552-1.294 4.845 0l.692.692a.49.49 0 0 1-.692.693l-.692-.693c-.924-.924-2.535-.924-3.461 0l-4.5 4.5a2.43 2.43 0 0 0-.716 1.73c0 .655.254 1.27.716 1.731l.693.691c.924.926 2.536.926 3.46 0l3.116-3.115a.49.49 0 1 1 .692.692L7.54 17.92a3.402 3.402 0 0 1-2.422 1.004"/>
</svg>
