<svg xmlns="http://www.w3.org/2000/svg" width="31" height="32" viewBox="0 0 31 32">
    <g fill="none" fill-rule="evenodd" transform="translate(.5 1)">
        <circle cx="15" cy="15" r="15" stroke="#FFF" stroke-width=".5"/>
        <path fill="#FFF" d="M8 20.087a8.13 8.13 0 0 0 4.403 1.29c5.333 0 8.345-4.503 8.164-8.544A5.82 5.82 0 0 0 22 11.346a5.73 5.73 0 0 1-1.65.452 2.876 2.876 0 0 0 1.263-1.589c-.555.33-1.17.569-1.823.698a2.875 2.875 0 0 0-4.895 2.62 8.152 8.152 0 0 1-5.92-3.001 2.876 2.876 0 0 0 .889 3.834A2.857 2.857 0 0 1 8.562 14c-.03 1.332.923 2.576 2.304 2.854-.404.11-.847.135-1.296.049a2.872 2.872 0 0 0 2.682 1.995A5.772 5.772 0 0 1 8 20.087"/>
    </g>
</svg>
