<svg xmlns="http://www.w3.org/2000/svg" width="45" height="51" viewBox="0 0 45 51">
    <g fill="none" fill-rule="evenodd">
        <path fill="#20D4A8" d="M44.32 50.733H.213V14.041H44.32z"/>
        <path stroke="#0E75ED" d="M44.422 27.303H.042M22.232 50.608l.035-23.305"/>
        <g stroke="#FFF">
            <path d="M11.027 2.719c1.406-1.407 3.536-1.562 6.25 1.152 2.713 2.714 3.58 8.677 3.58 8.677s-5.963-.865-8.676-3.58C9.465 6.255 9.62 4.127 11.027 2.72zM32.888 2.462c1.476 1.477 1.638 3.711-1.21 6.56-2.85 2.849-9.107 3.757-9.107 3.757s.909-6.259 3.756-9.108c2.85-2.848 5.084-2.686 6.561-1.209z"/>
        </g>
    </g>
</svg>
