<svg xmlns="http://www.w3.org/2000/svg" xmlns:xlink="http://www.w3.org/1999/xlink" width="20" height="20" viewBox="0 0 20 20">
    <defs>
        <path id="a" d="M0 .021h19.986v17.712H0z"/>
    </defs>
    <g fill="none" fill-rule="evenodd">
        <g transform="translate(0 1.037)">
            <mask id="b" fill="#fff">
                <use xlink:href="#a"/>
            </mask>
            <path fill="#181A1C" d="M18.307 9.186c-.367-.845-.958-1.615-1.72-2.27.243-.196.553-.314.89-.314.786 0 1.427.64 1.427 1.427 0 .476-.236.898-.597 1.157m-2.782 5.767c-1.465 1.094-3.43 1.697-5.532 1.697s-4.067-.603-5.531-1.697c-1.37-1.024-2.125-2.356-2.125-3.75 0-1.395.754-2.726 2.125-3.75C5.926 6.358 7.89 5.756 9.993 5.756c2.103 0 4.067.602 5.532 1.697 1.37 1.024 2.125 2.355 2.125 3.75 0 1.394-.755 2.726-2.125 3.75M1.083 8.029c0-.787.64-1.427 1.427-1.427.337 0 .646.118.89.314-.763.655-1.354 1.425-1.721 2.27a1.423 1.423 0 0 1-.596-1.157m14.998-6.925a1.013 1.013 0 1 1-1.012 1.012c0-.558.454-1.012 1.012-1.012m3.905 6.925a2.51 2.51 0 0 0-4.285-1.771c-1.404-.906-3.197-1.483-5.166-1.573a2.734 2.734 0 0 1 1.028-2.139 2.736 2.736 0 0 1 2.315-.539l.112.025c0 .029-.004.056-.004.084a2.095 2.095 0 1 0 .328-1.121L14.113.95a3.812 3.812 0 0 0-3.228.752 3.812 3.812 0 0 0-1.433 2.983c-1.969.09-3.762.667-5.165 1.572a2.51 2.51 0 1 0-2.94 3.994c-.061.31-.093.628-.093.952 0 3.606 3.912 6.53 8.74 6.53 4.826 0 8.739-2.924 8.739-6.53 0-.323-.032-.641-.093-.952a2.509 2.509 0 0 0 1.346-2.222" mask="url(#b)"/>
        </g>
        <path fill="#D80000" d="M7.944 10.714a1.143 1.143 0 1 1-2.286 0 1.143 1.143 0 0 1 2.286 0M14.328 10.714a1.143 1.143 0 1 1-2.286 0 1.143 1.143 0 0 1 2.286 0"/>
        <path fill="#181A1C" d="M12.701 13.491a4.357 4.357 0 0 1-2.94 1.139 4.326 4.326 0 0 1-3.196-1.39.541.541 0 1 0-.791.738 5.47 5.47 0 0 0 3.987 1.734 5.438 5.438 0 0 0 3.67-1.42.542.542 0 0 0-.73-.8"/>
    </g>
</svg>
