<svg xmlns="http://www.w3.org/2000/svg" width="110" height="23" viewBox="0 0 110 23">
    <g fill="none" fill-rule="evenodd">
        <path fill="#0071E6" d="M109.887 4.802c0 2.1-1.698 3.803-3.794 3.803a3.798 3.798 0 0 1-3.795-3.803c0-2.1 1.7-3.802 3.795-3.802a3.798 3.798 0 0 1 3.794 3.802"/>
        <g fill="#0071E6">
            <path d="M8.33 8.925c1.585 0 2.536-.782 2.536-2.028v-.05c0-1.368-1-2.053-2.561-2.053H5.183v4.131h3.146zM.45.712h8.075c2.61 0 4.415.685 5.56 1.834 1.001 1.002 1.513 2.297 1.513 3.984v.048c0 2.64-1.39 4.376-3.512 5.28l4.865 7.385h-5.44L7.28 12.64H5.183v6.602H.45V.713z"/>
            <path d="M25.04 11.123c-.17-1.467-1.049-2.395-2.318-2.395-1.22 0-2.048.928-2.292 2.395h4.61zm-8.977 1.149v-.049c0-3.862 2.756-6.918 6.66-6.918 4.536 0 6.634 3.35 6.634 7.236 0 .293 0 .635-.024.953h-8.83c.366 1.442 1.415 2.175 2.853 2.175 1.123 0 1.976-.415 2.928-1.344l2.561 2.127c-1.269 1.613-3.098 2.689-5.708 2.689-4.147 0-7.074-2.787-7.074-6.87zM40.904 12.223v-.05c0-1.759-1.22-3.005-2.708-3.005-1.513 0-2.708 1.246-2.708 3.006v.05c0 1.759 1.195 3.005 2.708 3.005 1.488 0 2.708-1.222 2.708-3.006zm-9.953-6.37h4.635V7.36c.902-1.1 2.025-2.054 4-2.054 3.146 0 5.854 2.616 5.854 6.844 0 4.352-2.708 6.967-5.83 6.967-2 0-3.17-.904-4.024-1.907v5.525H30.95V5.854zM56.597 12.272v-.049c0-1.638-1.196-3.007-2.83-3.007-1.683 0-2.756 1.345-2.756 2.958v.05c0 1.612 1.17 2.981 2.805 2.981 1.683 0 2.78-1.344 2.78-2.933m-10.073 0v-.049c0-3.764 3.072-6.918 7.293-6.918 4.22 0 7.269 3.105 7.269 6.869v.05c0 3.763-3.074 6.916-7.318 6.916-4.195 0-7.244-3.104-7.244-6.868"/>
        </g>
        <path fill="#0071E6" d="M62.18 5.976h4.633v1.48c.855-1.1 2.074-2.15 3.952-2.15 2.806 0 4.488 1.857 4.488 4.864v8.653h-4.61V11.66c0-1.467-.756-2.25-1.878-2.25-1.122 0-1.952.783-1.952 2.25v7.162h-4.634V5.976zM76.668 17.136l1.732-2.787c1.513 1.003 3.147 1.516 4.513 1.516.805 0 1.195-.245 1.195-.709v-.049c0-.537-.756-.758-2.146-1.148-2.61-.685-4.684-1.565-4.684-4.205v-.048c0-2.812 2.244-4.376 5.293-4.376 1.928 0 3.928.562 5.44 1.54l-1.585 2.933c-1.367-.782-2.854-1.247-3.903-1.247-.708 0-1.074.27-1.074.66v.05c0 .513.781.757 2.147 1.173 2.61.733 4.683 1.637 4.683 4.204v.049c0 2.909-2.17 4.424-5.39 4.424-2.22 0-4.416-.66-6.22-1.98M97.745 11.123c-.171-1.467-1.05-2.395-2.317-2.395-1.22 0-2.05.928-2.294 2.395h4.61zm-8.976 1.149v-.049c0-3.862 2.756-6.918 6.659-6.918 4.537 0 6.635 3.35 6.635 7.236 0 .293 0 .635-.025.953h-8.83c.365 1.442 1.414 2.175 2.854 2.175 1.122 0 1.976-.415 2.927-1.344l2.56 2.127c-1.268 1.613-3.097 2.689-5.707 2.689-4.147 0-7.073-2.787-7.073-6.87z"/>
        <path fill="#FFF" d="M104.502 2.916h1.868c.604 0 1.021.159 1.286.424.232.232.35.532.35.922v.011c0 .61-.322 1.012-.812 1.222l.942 1.379h-1.258l-.796-1.199h-.486v1.199h-1.094V2.916z"/>
        <path fill="#0071E6" d="M105.596 6.227h.756v-.721h-.756v.721zm-.564-1.734c.03-.452.295-.93 1.011-.93.71 0 .95.427.967.751 0 .441-.254.529-.494.653-.167.087-.203.16-.203.327h-.674c-.003-.036-.003-.083-.003-.138 0-.164.05-.386.258-.503.116-.058.338-.12.338-.284 0-.124-.07-.186-.21-.186-.175 0-.244.15-.23.31h-.76z"/>
        <path fill="#FFF" d="M104 2.9h1v1h-1z"/>
    </g>
</svg>
